<mxfile host="app.diagrams.net" modified="2022-12-04T19:43:44.122Z" agent="5.0 (Windows NT 10.0; Win64; x64) AppleWebKit/537.36 (KHTML, like Gecko) Chrome/108.0.0.0 Safari/537.36" version="20.6.0" etag="RIePKUPJ1XwSWykB-B0a" type="github">
  <diagram id="0T3paosvcfoGFOL2iNmv" name="Page-1">
    <mxGraphModel dx="1955" dy="887" grid="1" gridSize="10" guides="1" tooltips="1" connect="1" arrows="1" fold="1" page="1" pageScale="1" pageWidth="1169" pageHeight="827" math="0" shadow="0">
      <root>
        <mxCell id="0" />
        <mxCell id="1" parent="0" />
        <mxCell id="VbaBCYuFT3al6qbauaoQ-41" style="edgeStyle=orthogonalEdgeStyle;rounded=0;orthogonalLoop=1;jettySize=auto;html=1;exitX=1;exitY=0.5;exitDx=0;exitDy=0;exitPerimeter=0;entryX=0;entryY=0.5;entryDx=0;entryDy=0;" edge="1" parent="1" source="VbaBCYuFT3al6qbauaoQ-1" target="VbaBCYuFT3al6qbauaoQ-6">
          <mxGeometry relative="1" as="geometry" />
        </mxCell>
        <mxCell id="VbaBCYuFT3al6qbauaoQ-1" value="Start" style="html=1;dashed=0;whitespace=wrap;shape=mxgraph.dfd.start" vertex="1" parent="1">
          <mxGeometry x="20" y="120" width="80" height="40" as="geometry" />
        </mxCell>
        <mxCell id="VbaBCYuFT3al6qbauaoQ-44" style="edgeStyle=orthogonalEdgeStyle;rounded=0;orthogonalLoop=1;jettySize=auto;html=1;exitX=1;exitY=0.5;exitDx=0;exitDy=0;entryX=0;entryY=0.5;entryDx=0;entryDy=0;" edge="1" parent="1" source="VbaBCYuFT3al6qbauaoQ-2" target="VbaBCYuFT3al6qbauaoQ-8">
          <mxGeometry relative="1" as="geometry" />
        </mxCell>
        <mxCell id="VbaBCYuFT3al6qbauaoQ-2" value="Get the &lt;br&gt;dependent data" style="rounded=0;whiteSpace=wrap;html=1;" vertex="1" parent="1">
          <mxGeometry x="280" y="110" width="120" height="60" as="geometry" />
        </mxCell>
        <mxCell id="VbaBCYuFT3al6qbauaoQ-11" style="edgeStyle=orthogonalEdgeStyle;rounded=0;orthogonalLoop=1;jettySize=auto;html=1;exitX=0.5;exitY=1;exitDx=0;exitDy=0;entryX=0.5;entryY=0;entryDx=0;entryDy=0;" edge="1" parent="1" source="VbaBCYuFT3al6qbauaoQ-4" target="VbaBCYuFT3al6qbauaoQ-2">
          <mxGeometry relative="1" as="geometry" />
        </mxCell>
        <mxCell id="VbaBCYuFT3al6qbauaoQ-4" value="dataset_part_2.csv" style="shape=parallelogram;perimeter=parallelogramPerimeter;whiteSpace=wrap;html=1;fixedSize=1;" vertex="1" parent="1">
          <mxGeometry x="270" y="40" width="160" height="40" as="geometry" />
        </mxCell>
        <mxCell id="VbaBCYuFT3al6qbauaoQ-10" style="edgeStyle=orthogonalEdgeStyle;rounded=0;orthogonalLoop=1;jettySize=auto;html=1;exitX=0.5;exitY=1;exitDx=0;exitDy=0;entryX=0.5;entryY=0;entryDx=0;entryDy=0;" edge="1" parent="1" source="VbaBCYuFT3al6qbauaoQ-5" target="VbaBCYuFT3al6qbauaoQ-8">
          <mxGeometry relative="1" as="geometry" />
        </mxCell>
        <mxCell id="VbaBCYuFT3al6qbauaoQ-5" value="dataset_part_3.csv" style="shape=parallelogram;perimeter=parallelogramPerimeter;whiteSpace=wrap;html=1;fixedSize=1;" vertex="1" parent="1">
          <mxGeometry x="420" y="40" width="160" height="40" as="geometry" />
        </mxCell>
        <mxCell id="VbaBCYuFT3al6qbauaoQ-43" style="edgeStyle=orthogonalEdgeStyle;rounded=0;orthogonalLoop=1;jettySize=auto;html=1;exitX=1;exitY=0.5;exitDx=0;exitDy=0;entryX=0;entryY=0.5;entryDx=0;entryDy=0;" edge="1" parent="1" source="VbaBCYuFT3al6qbauaoQ-6" target="VbaBCYuFT3al6qbauaoQ-2">
          <mxGeometry relative="1" as="geometry" />
        </mxCell>
        <mxCell id="VbaBCYuFT3al6qbauaoQ-6" value="Create&amp;nbsp;&lt;br&gt;&lt;span style=&quot;color: rgb(33, 33, 33); font-size: 13px; text-align: start; background-color: initial;&quot;&gt;confusion_matrix function&lt;/span&gt;&lt;span style=&quot;background-color: initial;&quot;&gt;&amp;nbsp;&lt;/span&gt;" style="rounded=0;whiteSpace=wrap;html=1;" vertex="1" parent="1">
          <mxGeometry x="130" y="110" width="120" height="60" as="geometry" />
        </mxCell>
        <mxCell id="VbaBCYuFT3al6qbauaoQ-46" style="edgeStyle=orthogonalEdgeStyle;rounded=0;orthogonalLoop=1;jettySize=auto;html=1;exitX=1;exitY=0.5;exitDx=0;exitDy=0;entryX=0;entryY=0.5;entryDx=0;entryDy=0;" edge="1" parent="1" source="VbaBCYuFT3al6qbauaoQ-7" target="VbaBCYuFT3al6qbauaoQ-22">
          <mxGeometry relative="1" as="geometry" />
        </mxCell>
        <mxCell id="VbaBCYuFT3al6qbauaoQ-7" value="Dependent variable&amp;nbsp;&lt;br&gt;Y = data [ &#39;Class&#39; ]" style="rounded=0;whiteSpace=wrap;html=1;" vertex="1" parent="1">
          <mxGeometry x="580" y="110" width="120" height="60" as="geometry" />
        </mxCell>
        <mxCell id="VbaBCYuFT3al6qbauaoQ-45" style="edgeStyle=orthogonalEdgeStyle;rounded=0;orthogonalLoop=1;jettySize=auto;html=1;exitX=1;exitY=0.5;exitDx=0;exitDy=0;entryX=0;entryY=0.5;entryDx=0;entryDy=0;" edge="1" parent="1" source="VbaBCYuFT3al6qbauaoQ-8" target="VbaBCYuFT3al6qbauaoQ-7">
          <mxGeometry relative="1" as="geometry" />
        </mxCell>
        <mxCell id="VbaBCYuFT3al6qbauaoQ-8" value="Get the &lt;br&gt;independent data&lt;br&gt;(X)" style="rounded=0;whiteSpace=wrap;html=1;" vertex="1" parent="1">
          <mxGeometry x="430" y="110" width="120" height="60" as="geometry" />
        </mxCell>
        <mxCell id="VbaBCYuFT3al6qbauaoQ-67" style="edgeStyle=orthogonalEdgeStyle;rounded=0;orthogonalLoop=1;jettySize=auto;html=1;exitX=1;exitY=0.5;exitDx=0;exitDy=0;entryX=0;entryY=0.5;entryDx=0;entryDy=0;entryPerimeter=0;" edge="1" parent="1" source="VbaBCYuFT3al6qbauaoQ-15" target="VbaBCYuFT3al6qbauaoQ-39">
          <mxGeometry relative="1" as="geometry" />
        </mxCell>
        <mxCell id="VbaBCYuFT3al6qbauaoQ-15" value="Evaluate the best model" style="rounded=0;whiteSpace=wrap;html=1;" vertex="1" parent="1">
          <mxGeometry x="930" y="430" width="120" height="60" as="geometry" />
        </mxCell>
        <mxCell id="VbaBCYuFT3al6qbauaoQ-63" style="edgeStyle=orthogonalEdgeStyle;rounded=0;orthogonalLoop=1;jettySize=auto;html=1;exitX=1;exitY=0.5;exitDx=0;exitDy=0;entryX=0;entryY=0.5;entryDx=0;entryDy=0;" edge="1" parent="1" source="VbaBCYuFT3al6qbauaoQ-16" target="VbaBCYuFT3al6qbauaoQ-28">
          <mxGeometry relative="1" as="geometry" />
        </mxCell>
        <mxCell id="VbaBCYuFT3al6qbauaoQ-16" value="predict yhat and&amp;nbsp;&lt;br&gt;plot confusion matrix" style="rounded=0;whiteSpace=wrap;html=1;" vertex="1" parent="1">
          <mxGeometry x="730" y="240" width="120" height="60" as="geometry" />
        </mxCell>
        <mxCell id="VbaBCYuFT3al6qbauaoQ-51" style="edgeStyle=orthogonalEdgeStyle;rounded=0;orthogonalLoop=1;jettySize=auto;html=1;exitX=1;exitY=0.5;exitDx=0;exitDy=0;entryX=0;entryY=0.5;entryDx=0;entryDy=0;" edge="1" parent="1" source="VbaBCYuFT3al6qbauaoQ-17" target="VbaBCYuFT3al6qbauaoQ-16">
          <mxGeometry relative="1" as="geometry" />
        </mxCell>
        <mxCell id="VbaBCYuFT3al6qbauaoQ-17" value="Evaluate &lt;br&gt;accuracy" style="rounded=0;whiteSpace=wrap;html=1;" vertex="1" parent="1">
          <mxGeometry x="580" y="240" width="120" height="60" as="geometry" />
        </mxCell>
        <mxCell id="VbaBCYuFT3al6qbauaoQ-50" style="edgeStyle=orthogonalEdgeStyle;rounded=0;orthogonalLoop=1;jettySize=auto;html=1;exitX=1;exitY=0.5;exitDx=0;exitDy=0;entryX=0;entryY=0.5;entryDx=0;entryDy=0;" edge="1" parent="1" source="VbaBCYuFT3al6qbauaoQ-18" target="VbaBCYuFT3al6qbauaoQ-17">
          <mxGeometry relative="1" as="geometry" />
        </mxCell>
        <mxCell id="VbaBCYuFT3al6qbauaoQ-18" value="GridSearchCV to chose regularisation strengths between&lt;br&gt;&lt;span style=&quot;font-size: 12px;&quot;&gt;0.01, 0.1 and 1.0&lt;/span&gt;" style="rounded=0;whiteSpace=wrap;html=1;" vertex="1" parent="1">
          <mxGeometry x="430" y="220" width="120" height="100" as="geometry" />
        </mxCell>
        <mxCell id="VbaBCYuFT3al6qbauaoQ-49" style="edgeStyle=orthogonalEdgeStyle;rounded=0;orthogonalLoop=1;jettySize=auto;html=1;exitX=1;exitY=0.5;exitDx=0;exitDy=0;entryX=0;entryY=0.5;entryDx=0;entryDy=0;" edge="1" parent="1" source="VbaBCYuFT3al6qbauaoQ-19" target="VbaBCYuFT3al6qbauaoQ-18">
          <mxGeometry relative="1" as="geometry" />
        </mxCell>
        <mxCell id="VbaBCYuFT3al6qbauaoQ-19" value="penalty = l2&lt;br&gt;solver =lbfgs" style="rounded=0;whiteSpace=wrap;html=1;" vertex="1" parent="1">
          <mxGeometry x="280" y="240" width="120" height="60" as="geometry" />
        </mxCell>
        <mxCell id="VbaBCYuFT3al6qbauaoQ-48" style="edgeStyle=orthogonalEdgeStyle;rounded=0;orthogonalLoop=1;jettySize=auto;html=1;exitX=1;exitY=0.5;exitDx=0;exitDy=0;entryX=0;entryY=0.5;entryDx=0;entryDy=0;" edge="1" parent="1" source="VbaBCYuFT3al6qbauaoQ-20" target="VbaBCYuFT3al6qbauaoQ-19">
          <mxGeometry relative="1" as="geometry" />
        </mxCell>
        <mxCell id="VbaBCYuFT3al6qbauaoQ-20" value="Create a logistic regression&amp;nbsp;" style="rounded=0;whiteSpace=wrap;html=1;" vertex="1" parent="1">
          <mxGeometry x="130" y="240" width="120" height="60" as="geometry" />
        </mxCell>
        <mxCell id="VbaBCYuFT3al6qbauaoQ-62" style="edgeStyle=orthogonalEdgeStyle;rounded=0;orthogonalLoop=1;jettySize=auto;html=1;exitX=1;exitY=0.5;exitDx=0;exitDy=0;entryX=0;entryY=0.5;entryDx=0;entryDy=0;" edge="1" parent="1" source="VbaBCYuFT3al6qbauaoQ-21" target="VbaBCYuFT3al6qbauaoQ-20">
          <mxGeometry relative="1" as="geometry">
            <Array as="points">
              <mxPoint x="1020" y="140" />
              <mxPoint x="1020" y="200" />
              <mxPoint x="110" y="200" />
              <mxPoint x="110" y="270" />
            </Array>
          </mxGeometry>
        </mxCell>
        <mxCell id="VbaBCYuFT3al6qbauaoQ-21" value="Split the&amp;nbsp; X and Y into train and test sets" style="rounded=0;whiteSpace=wrap;html=1;" vertex="1" parent="1">
          <mxGeometry x="880" y="110" width="120" height="60" as="geometry" />
        </mxCell>
        <mxCell id="VbaBCYuFT3al6qbauaoQ-47" style="edgeStyle=orthogonalEdgeStyle;rounded=0;orthogonalLoop=1;jettySize=auto;html=1;exitX=1;exitY=0.5;exitDx=0;exitDy=0;entryX=0;entryY=0.5;entryDx=0;entryDy=0;" edge="1" parent="1" source="VbaBCYuFT3al6qbauaoQ-22" target="VbaBCYuFT3al6qbauaoQ-21">
          <mxGeometry relative="1" as="geometry" />
        </mxCell>
        <mxCell id="VbaBCYuFT3al6qbauaoQ-22" value="Scale the independent variables" style="rounded=0;whiteSpace=wrap;html=1;" vertex="1" parent="1">
          <mxGeometry x="730" y="110" width="120" height="60" as="geometry" />
        </mxCell>
        <mxCell id="VbaBCYuFT3al6qbauaoQ-64" style="edgeStyle=orthogonalEdgeStyle;rounded=0;orthogonalLoop=1;jettySize=auto;html=1;exitX=1;exitY=0.5;exitDx=0;exitDy=0;entryX=0;entryY=0.5;entryDx=0;entryDy=0;" edge="1" parent="1" source="VbaBCYuFT3al6qbauaoQ-24" target="VbaBCYuFT3al6qbauaoQ-32">
          <mxGeometry relative="1" as="geometry">
            <Array as="points">
              <mxPoint x="870" y="390" />
              <mxPoint x="870" y="450" />
              <mxPoint x="110" y="450" />
              <mxPoint x="110" y="530" />
            </Array>
          </mxGeometry>
        </mxCell>
        <mxCell id="VbaBCYuFT3al6qbauaoQ-24" value="predict yhat and&amp;nbsp;&lt;br&gt;plot confusion matrix" style="rounded=0;whiteSpace=wrap;html=1;" vertex="1" parent="1">
          <mxGeometry x="730" y="360" width="120" height="60" as="geometry" />
        </mxCell>
        <mxCell id="VbaBCYuFT3al6qbauaoQ-54" style="edgeStyle=orthogonalEdgeStyle;rounded=0;orthogonalLoop=1;jettySize=auto;html=1;exitX=1;exitY=0.5;exitDx=0;exitDy=0;entryX=0;entryY=0.5;entryDx=0;entryDy=0;" edge="1" parent="1" source="VbaBCYuFT3al6qbauaoQ-25" target="VbaBCYuFT3al6qbauaoQ-24">
          <mxGeometry relative="1" as="geometry" />
        </mxCell>
        <mxCell id="VbaBCYuFT3al6qbauaoQ-25" value="Evaluate &lt;br&gt;accuracy" style="rounded=0;whiteSpace=wrap;html=1;" vertex="1" parent="1">
          <mxGeometry x="580" y="360" width="120" height="60" as="geometry" />
        </mxCell>
        <mxCell id="VbaBCYuFT3al6qbauaoQ-53" style="edgeStyle=orthogonalEdgeStyle;rounded=0;orthogonalLoop=1;jettySize=auto;html=1;exitX=1;exitY=0.5;exitDx=0;exitDy=0;entryX=0;entryY=0.5;entryDx=0;entryDy=0;" edge="1" parent="1" source="VbaBCYuFT3al6qbauaoQ-27" target="VbaBCYuFT3al6qbauaoQ-25">
          <mxGeometry relative="1" as="geometry" />
        </mxCell>
        <mxCell id="VbaBCYuFT3al6qbauaoQ-27" value="GridSearchCV chose:&lt;br&gt;Regularisation parameter: C=[ - 3, 3 ]&lt;br&gt;Gamma parameter: gama=[ -3, 3 ]&lt;br&gt;Kernel: linear, Polynomial, RBF, Sigmoid" style="rounded=0;whiteSpace=wrap;html=1;" vertex="1" parent="1">
          <mxGeometry x="280" y="350" width="270" height="80" as="geometry" />
        </mxCell>
        <mxCell id="VbaBCYuFT3al6qbauaoQ-52" style="edgeStyle=orthogonalEdgeStyle;rounded=0;orthogonalLoop=1;jettySize=auto;html=1;exitX=1;exitY=0.5;exitDx=0;exitDy=0;entryX=0;entryY=0.5;entryDx=0;entryDy=0;" edge="1" parent="1" source="VbaBCYuFT3al6qbauaoQ-28" target="VbaBCYuFT3al6qbauaoQ-27">
          <mxGeometry relative="1" as="geometry" />
        </mxCell>
        <mxCell id="VbaBCYuFT3al6qbauaoQ-28" value="Create a Suport Vector Machine" style="rounded=0;whiteSpace=wrap;html=1;" vertex="1" parent="1">
          <mxGeometry x="130" y="360" width="120" height="60" as="geometry" />
        </mxCell>
        <mxCell id="VbaBCYuFT3al6qbauaoQ-65" style="edgeStyle=orthogonalEdgeStyle;rounded=0;orthogonalLoop=1;jettySize=auto;html=1;exitX=1;exitY=0.5;exitDx=0;exitDy=0;entryX=0;entryY=0.5;entryDx=0;entryDy=0;" edge="1" parent="1" source="VbaBCYuFT3al6qbauaoQ-29" target="VbaBCYuFT3al6qbauaoQ-38">
          <mxGeometry relative="1" as="geometry">
            <Array as="points">
              <mxPoint x="870" y="530" />
              <mxPoint x="870" y="610" />
              <mxPoint x="110" y="610" />
              <mxPoint x="110" y="670" />
            </Array>
          </mxGeometry>
        </mxCell>
        <mxCell id="VbaBCYuFT3al6qbauaoQ-29" value="predict yhat and&amp;nbsp;&lt;br&gt;plot confusion matrix" style="rounded=0;whiteSpace=wrap;html=1;" vertex="1" parent="1">
          <mxGeometry x="730" y="500" width="120" height="60" as="geometry" />
        </mxCell>
        <mxCell id="VbaBCYuFT3al6qbauaoQ-57" style="edgeStyle=orthogonalEdgeStyle;rounded=0;orthogonalLoop=1;jettySize=auto;html=1;exitX=1;exitY=0.5;exitDx=0;exitDy=0;entryX=0;entryY=0.5;entryDx=0;entryDy=0;" edge="1" parent="1" source="VbaBCYuFT3al6qbauaoQ-30" target="VbaBCYuFT3al6qbauaoQ-29">
          <mxGeometry relative="1" as="geometry" />
        </mxCell>
        <mxCell id="VbaBCYuFT3al6qbauaoQ-30" value="Evaluate &lt;br&gt;accuracy" style="rounded=0;whiteSpace=wrap;html=1;" vertex="1" parent="1">
          <mxGeometry x="580" y="500" width="120" height="60" as="geometry" />
        </mxCell>
        <mxCell id="VbaBCYuFT3al6qbauaoQ-56" style="edgeStyle=orthogonalEdgeStyle;rounded=0;orthogonalLoop=1;jettySize=auto;html=1;exitX=1;exitY=0.5;exitDx=0;exitDy=0;entryX=0;entryY=0.5;entryDx=0;entryDy=0;" edge="1" parent="1" source="VbaBCYuFT3al6qbauaoQ-31" target="VbaBCYuFT3al6qbauaoQ-30">
          <mxGeometry relative="1" as="geometry" />
        </mxCell>
        <mxCell id="VbaBCYuFT3al6qbauaoQ-31" value="GridSearchCV chose:&lt;br&gt;Quality split criterion:&amp;nbsp;&lt;span style=&quot;color: var(--jp-mirror-editor-string-color) ; font-size: 13px; text-align: start; background-color: initial; box-sizing: unset;&quot; class=&quot;s1&quot;&gt;gini or&lt;/span&gt;&lt;span style=&quot;color: rgb(33, 33, 33); font-size: 13px; text-align: start; background-color: initial;&quot;&gt;&amp;nbsp;&lt;/span&gt;&lt;span style=&quot;color: var(--jp-mirror-editor-string-color) ; font-size: 13px; text-align: start; background-color: initial; box-sizing: unset;&quot; class=&quot;s1&quot;&gt;entropy&lt;br&gt;&lt;/span&gt;Split: best or random&lt;br&gt;Maximum depth: 2 to 18, only pairs&lt;br&gt;Maximum features = sqrt&lt;br&gt;min samples leaf=[ 1, 2,&amp;nbsp; 4&amp;nbsp;]&lt;br&gt;min samples split = [ 2, 5 , 10 ]" style="rounded=0;whiteSpace=wrap;html=1;" vertex="1" parent="1">
          <mxGeometry x="280" y="470" width="270" height="120" as="geometry" />
        </mxCell>
        <mxCell id="VbaBCYuFT3al6qbauaoQ-55" style="edgeStyle=orthogonalEdgeStyle;rounded=0;orthogonalLoop=1;jettySize=auto;html=1;exitX=1;exitY=0.5;exitDx=0;exitDy=0;entryX=0;entryY=0.5;entryDx=0;entryDy=0;" edge="1" parent="1" source="VbaBCYuFT3al6qbauaoQ-32" target="VbaBCYuFT3al6qbauaoQ-31">
          <mxGeometry relative="1" as="geometry" />
        </mxCell>
        <mxCell id="VbaBCYuFT3al6qbauaoQ-32" value="Create a Decision Tree" style="rounded=0;whiteSpace=wrap;html=1;" vertex="1" parent="1">
          <mxGeometry x="130" y="500" width="120" height="60" as="geometry" />
        </mxCell>
        <mxCell id="VbaBCYuFT3al6qbauaoQ-66" style="edgeStyle=orthogonalEdgeStyle;rounded=0;orthogonalLoop=1;jettySize=auto;html=1;exitX=1;exitY=0.5;exitDx=0;exitDy=0;entryX=0;entryY=0.5;entryDx=0;entryDy=0;" edge="1" parent="1" source="VbaBCYuFT3al6qbauaoQ-35" target="VbaBCYuFT3al6qbauaoQ-15">
          <mxGeometry relative="1" as="geometry" />
        </mxCell>
        <mxCell id="VbaBCYuFT3al6qbauaoQ-35" value="predict yhat and&amp;nbsp;&lt;br&gt;plot confusion matrix" style="rounded=0;whiteSpace=wrap;html=1;" vertex="1" parent="1">
          <mxGeometry x="730" y="640" width="120" height="60" as="geometry" />
        </mxCell>
        <mxCell id="VbaBCYuFT3al6qbauaoQ-61" style="edgeStyle=orthogonalEdgeStyle;rounded=0;orthogonalLoop=1;jettySize=auto;html=1;exitX=1;exitY=0.5;exitDx=0;exitDy=0;entryX=0;entryY=0.5;entryDx=0;entryDy=0;" edge="1" parent="1" source="VbaBCYuFT3al6qbauaoQ-36" target="VbaBCYuFT3al6qbauaoQ-35">
          <mxGeometry relative="1" as="geometry" />
        </mxCell>
        <mxCell id="VbaBCYuFT3al6qbauaoQ-36" value="Evaluate &lt;br&gt;accuracy" style="rounded=0;whiteSpace=wrap;html=1;" vertex="1" parent="1">
          <mxGeometry x="580" y="640" width="120" height="60" as="geometry" />
        </mxCell>
        <mxCell id="VbaBCYuFT3al6qbauaoQ-60" style="edgeStyle=orthogonalEdgeStyle;rounded=0;orthogonalLoop=1;jettySize=auto;html=1;exitX=1;exitY=0.5;exitDx=0;exitDy=0;entryX=0;entryY=0.5;entryDx=0;entryDy=0;" edge="1" parent="1" source="VbaBCYuFT3al6qbauaoQ-37" target="VbaBCYuFT3al6qbauaoQ-36">
          <mxGeometry relative="1" as="geometry" />
        </mxCell>
        <mxCell id="VbaBCYuFT3al6qbauaoQ-37" value="GridSearchCV chose:&lt;br&gt;Algorithm: auto, ball tree, kd tree, brute&lt;br&gt;Number of neighbours: 1 to 10&lt;br&gt;Power parameters: 1 and 2" style="rounded=0;whiteSpace=wrap;html=1;" vertex="1" parent="1">
          <mxGeometry x="280" y="630" width="270" height="80" as="geometry" />
        </mxCell>
        <mxCell id="VbaBCYuFT3al6qbauaoQ-58" style="edgeStyle=orthogonalEdgeStyle;rounded=0;orthogonalLoop=1;jettySize=auto;html=1;exitX=1;exitY=0.5;exitDx=0;exitDy=0;entryX=0;entryY=0.5;entryDx=0;entryDy=0;" edge="1" parent="1" source="VbaBCYuFT3al6qbauaoQ-38" target="VbaBCYuFT3al6qbauaoQ-37">
          <mxGeometry relative="1" as="geometry" />
        </mxCell>
        <mxCell id="VbaBCYuFT3al6qbauaoQ-38" value="Create a &lt;br&gt;K-Nearest Neighbour" style="rounded=0;whiteSpace=wrap;html=1;" vertex="1" parent="1">
          <mxGeometry x="130" y="640" width="120" height="60" as="geometry" />
        </mxCell>
        <mxCell id="VbaBCYuFT3al6qbauaoQ-39" value="End" style="html=1;dashed=0;whitespace=wrap;shape=mxgraph.dfd.start" vertex="1" parent="1">
          <mxGeometry x="1080" y="440" width="80" height="40" as="geometry" />
        </mxCell>
      </root>
    </mxGraphModel>
  </diagram>
</mxfile>
